<mxfile host="app.diagrams.net" modified="2023-10-07T14:17:37.000Z" agent="Mozilla/5.0 (Macintosh; Intel Mac OS X 10_15_7) AppleWebKit/537.36 (KHTML, like Gecko) Chrome/117.0.0.0 Safari/537.36" version="22.0.4" etag="pf58piOZNkcbSQU6j5v9" type="github">
  <diagram name="PÃ¡gina-1" id="ELZ3q7CqxzBkE2XIiFeQ">
    <mxGraphModel>
      <root>
        <mxCell id="0" />
        <mxCell id="1" parent="0" />
      </root>
    </mxGraphModel>
  </diagram>
</mxfile>
